<?xml version="1.0" standalone="no"?>
<!DOCTYPE svg PUBLIC "-//W3C//DTD SVG 20010904//EN"
 "http://www.w3.org/TR/2001/REC-SVG-20010904/DTD/svg10.dtd">
<svg version="1.0" xmlns="http://www.w3.org/2000/svg"
 width="700.000000pt" height="700.000000pt" viewBox="0 0 700.000000 700.000000"
 preserveAspectRatio="xMidYMid meet">
<metadata>
Created by potrace 1.11, written by Peter Selinger 2001-2013
</metadata>
<g transform="translate(0.000000,700.000000) scale(0.100000,-0.100000)"
fill="#000000" stroke="none">
<path d="M3999 6026 c-2 -2 -31 -6 -64 -10 -264 -27 -565 -173 -781 -377 -44
-41 -142 -149 -166 -184 -4 -5 -18 -23 -31 -40 -76 -97 -187 -321 -231 -466
-4 -15 -14 -14 -98 8 -179 48 -402 38 -553 -26 -175 -74 -277 -142 -402 -266
l-101 -101 -79 1 c-87 2 -113 -6 -113 -35 0 -28 27 -38 93 -36 31 1 57 0 57
-2 0 -2 -13 -30 -29 -61 -52 -101 -85 -193 -97 -266 -6 -34 -28 -55 -59 -55
-45 0 -246 -76 -265 -100 -3 -3 -21 -16 -40 -27 -45 -27 -143 -127 -182 -184
-85 -124 -131 -282 -131 -449 0 -63 3 -131 7 -150 44 -216 135 -377 279 -495
133 -110 275 -158 464 -159 67 -1 126 -6 131 -11 5 -6 12 -48 16 -95 13 -177
76 -400 158 -564 183 -366 505 -631 887 -732 151 -40 342 -50 501 -25 298 47
557 180 788 407 47 46 87 84 88 84 1 0 19 -16 40 -35 123 -113 293 -203 412
-221 21 -3 44 -7 52 -10 19 -6 187 -6 225 1 271 48 456 166 621 395 l35 49 47
-15 c123 -38 177 -46 287 -41 183 8 307 62 441 192 117 115 193 247 228 400
20 91 16 313 -8 399 -36 127 -109 258 -191 340 l-24 24 26 64 c62 153 83 270
79 443 -2 72 -6 141 -10 155 -19 80 -19 80 6 80 29 0 51 14 54 34 3 23 -21 38
-60 38 -29 0 -36 5 -45 29 -5 16 -7 29 -3 30 4 0 26 2 50 2 47 2 66 20 51 49
-10 18 -30 21 -100 18 -34 -1 -37 2 -68 60 -70 131 -180 255 -301 342 -72 51
-191 111 -260 131 l-45 13 -11 89 c-29 225 -111 463 -228 659 -82 138 -234
307 -366 408 -189 144 -430 251 -620 275 -19 2 -42 7 -50 10 -17 6 -304 15
-311 9z"/>
</g>
</svg>
